<svg xmlns="http://www.w3.org/2000/svg" viewBox="0 9.470000267028809 94.62999725341797 35.78999710083008" data-asc="0.9052734375" width="94.62999725341797" height="35.78999710083008"><defs/><g fill="#000000"><g transform="translate(0, 0)"><path d="M0 45.26L0 9.47L24.15 9.47L24.15 13.70L4.74 13.70L4.74 24.78L21.53 24.78L21.53 29.00L4.74 29.00L4.74 45.26L0 45.26ZM30.30 45.26L30.30 9.47L42.63 9.47Q46.80 9.47 49.00 9.99Q52.08 10.69 54.25 12.55Q57.08 14.94 58.48 18.66Q59.89 22.39 59.89 27.17Q59.89 31.25 58.94 34.40Q57.98 37.55 56.49 39.61Q55.00 41.67 53.23 42.86Q51.46 44.04 48.96 44.65Q46.46 45.26 43.21 45.26L30.30 45.26M35.03 41.04L42.68 41.04Q46.22 41.04 48.23 40.38Q50.24 39.72 51.44 38.53Q53.13 36.84 54.06 34.00Q55.00 31.15 55.00 27.10Q55.00 21.48 53.16 18.47Q51.32 15.45 48.68 14.43Q46.78 13.70 42.55 13.70L35.03 13.70L35.03 41.04ZM66.55 45.26L66.55 9.47L71.29 9.47L71.29 24.17L89.89 24.17L89.89 9.47L94.63 9.47L94.63 45.26L89.89 45.26L89.89 28.39L71.29 28.39L71.29 45.26L66.55 45.26Z"/></g></g></svg>